<svg width="102" height="24" viewBox="0 0 102 24" fill="none" xmlns="http://www.w3.org/2000/svg">
<path d="M22.56 12.25C22.56 11.47 22.49 10.72 22.36 10H12V14.255H17.92C17.665 15.63 16.89 16.795 15.725 17.575V20.335H19.28C21.36 18.42 22.56 15.6 22.56 12.25Z" fill="#4285F4"/>
<path d="M12 23C14.97 23 17.46 22.015 19.28 20.335L15.725 17.575C14.74 18.235 13.48 18.625 12 18.625C9.13504 18.625 6.71004 16.69 5.84504 14.09H2.17004V16.94C3.98004 20.535 7.70004 23 12 23Z" fill="#34A853"/>
<path d="M5.845 14.09C5.625 13.43 5.5 12.725 5.5 12C5.5 11.275 5.625 10.57 5.845 9.91V7.06H2.17C1.4 8.59286 0.999321 10.2846 1 12C1 13.775 1.425 15.455 2.17 16.94L5.845 14.09Z" fill="#FBBC05"/>
<path d="M12 5.375C13.615 5.375 15.065 5.93 16.205 7.02L19.36 3.865C17.455 2.09 14.965 1 12 1C7.70004 1 3.98004 3.465 2.17004 7.06L5.84504 9.91C6.71004 7.31 9.13504 5.375 12 5.375Z" fill="#EA4335"/>
<g clip-path="url(#clip0_15_165)">
<g filter="url(#filter0_d_15_165)">
<path d="M63 12C63 5.3726 57.6274 2.67029e-05 51 2.67029e-05C44.3726 2.67029e-05 39 5.3726 39 12C39 17.9896 43.3882 22.954 49.125 23.8542V15.4688H46.0781V12H49.125V9.35628C49.125 6.34878 50.9165 4.68753 53.6576 4.68753C54.9705 4.68753 56.3438 4.9219 56.3438 4.9219V7.87503H54.8306C53.3399 7.87503 52.875 8.80003 52.875 9.74902V12H56.2031L55.6711 15.4688H52.875V23.8542C58.6118 22.954 63 17.9896 63 12Z" fill="#1877F2"/>
<path d="M55.6711 15.4688L56.2031 12H52.875V9.74899C52.875 8.80001 53.3399 7.875 54.8306 7.875H56.3438V4.92188C56.3438 4.92188 54.9705 4.6875 53.6576 4.6875C50.9165 4.6875 49.125 6.34875 49.125 9.35625V12H46.0781V15.4688H49.125V23.8542C49.7359 23.9501 50.3621 24 51 24C51.6379 24 52.2641 23.9501 52.875 23.8542V15.4688H55.6711Z" fill="white"/>
</g>
</g>
<g clip-path="url(#clip1_15_165)">
<path d="M91.0984 0H92.6528L93.6684 0.0207254L94.4974 0.0414508L94.9326 0.0621762C96.2176 0.124352 97.0881 0.331606 97.8342 0.621762C98.6218 0.932643 99.285 1.34715 99.9689 2.01036C100.632 2.67358 101.047 3.35751 101.358 4.14508C101.627 4.82902 101.813 5.59585 101.896 6.65285L101.959 7.79275L101.979 8.87047L102 10.9223V14.7772L101.979 15.9793L101.938 16.9741C101.876 18.2591 101.668 19.1295 101.378 19.8964C101.067 20.6839 100.653 21.3472 99.9896 22.0311C99.3264 22.6943 98.6632 23.1088 97.8549 23.4197C97.171 23.6891 96.4041 23.8756 95.3471 23.9585L94.0622 24.0207L92.9223 24.0415L91.0777 24.0622H87.2228L86.0207 24.0415L85.0259 24C83.7409 23.9378 82.8705 23.7306 82.1244 23.4404C81.3368 23.1295 80.6736 22.715 79.9896 22.0518C79.3264 21.3886 78.9119 20.7047 78.601 19.9171C78.3316 19.2332 78.1451 18.4663 78.0622 17.4093L78.0207 16.5596L78 15.7306V14.6528V12.7461V9.32642L78.0207 8.31088L78.0415 7.48186L78.0622 7.04663C78.1244 5.78238 78.3316 4.91192 78.6218 4.14508C78.9326 3.35751 79.3472 2.6943 80.0104 2.01036C80.6736 1.34715 81.3575 0.932643 82.1451 0.621762C82.829 0.352332 83.5959 0.165803 84.6528 0.0829016L85.5026 0.0414508L86.3316 0.0207254L87.3264 0H88.8808C88.9016 0 91.0984 0 91.0984 0ZM92.6114 2.17617H87.3679L86.456 2.19689L85.1295 2.23834C84.7979 2.25907 84.4663 2.27979 84.1347 2.32124L83.9482 2.34197C83.8238 2.36269 83.6788 2.38342 83.5544 2.42487L83.4093 2.46632C83.3679 2.48705 83.3264 2.48705 83.285 2.50777L83.0155 2.59067L82.8912 2.63212C82.3316 2.8601 81.9378 3.10881 81.5026 3.52332C81.0881 3.93782 80.8187 4.35233 80.6114 4.91192L80.5492 5.18135L80.5078 5.3057C80.4041 5.65803 80.3005 6.15544 80.2383 6.83938L80.2176 7.35751L80.1762 8.43523L80.1554 10.2798V14.5492L80.1762 15.8756L80.2176 16.8497C80.2383 17.2021 80.2591 17.5544 80.3212 17.9067L80.342 18.0725C80.342 18.0933 80.342 18.1347 80.3627 18.1554L80.4041 18.3005L80.4456 18.4456C80.4456 18.4663 80.4663 18.487 80.4663 18.5078L80.5078 18.6321L80.5492 18.7565L80.5699 18.8187L80.6528 19.0674C80.8601 19.6269 81.1295 20.0207 81.544 20.456C81.9585 20.8705 82.3731 21.1399 82.9326 21.3472L83.1813 21.4301L83.285 21.4715L83.3471 21.4922L83.4715 21.5337C83.4922 21.5337 83.513 21.5544 83.5337 21.5544L83.6788 21.5959L83.8238 21.6373L83.9896 21.658C84.3005 21.7202 84.6736 21.7617 85.1295 21.7824L86.601 21.8446L88.5492 21.8653H92.7772L93.8549 21.8446L94.829 21.8031C95.285 21.7824 95.658 21.7409 95.9689 21.6788L96.1347 21.658L96.2798 21.6166L96.4456 21.5544L96.5078 21.5337L96.6321 21.4922L96.7565 21.4508L96.8187 21.4301L97.0674 21.3472C97.6269 21.1399 98.0207 20.8705 98.456 20.456C98.8705 20.0415 99.1399 19.6269 99.3471 19.0674L99.43 18.8187C99.5544 18.4456 99.6788 17.9275 99.7409 17.1399L99.8031 15.8756L99.8238 14.5907V12.7461V9.40933L99.8031 8.12435L99.7617 7.15026C99.7409 6.8601 99.7202 6.54922 99.6788 6.25907L99.658 6.07254C99.6373 5.98964 99.6373 5.90674 99.6166 5.82383L99.5751 5.67876C99.5544 5.63731 99.5544 5.57513 99.5337 5.53368L99.4922 5.40933L99.4715 5.34715L99.3679 5.01554L99.3471 4.95337C99.1192 4.39378 98.8705 4 98.456 3.56477C98.0414 3.12953 97.6269 2.88083 97.0674 2.67358L96.943 2.63212L96.6736 2.54922L96.6114 2.48705L96.4456 2.4456C96.114 2.36269 95.6995 2.27979 95.1399 2.23834L94.2487 2.19689L93.5233 2.17617H92.6114Z" fill="url(#paint0_linear_15_165)"/>
<path d="M90 5.84459C93.399 5.84459 96.1555 8.60107 96.1555 12C96.1555 15.399 93.399 18.1555 90 18.1555C86.6011 18.1555 83.8446 15.399 83.8446 12C83.8446 8.60107 86.6011 5.84459 90 5.84459ZM90 8.00003C87.7824 8.00003 86 9.78241 86 12C86 14.2176 87.7824 16 90 16C92.2177 16 94 14.2176 94 12C94 9.78241 92.1969 8.00003 90 8.00003ZM97.8342 5.59588C97.855 6.38345 97.2332 7.04666 96.4456 7.06739C95.6581 7.08811 94.9949 6.46635 94.9741 5.67879C94.9741 5.65806 94.9741 5.61661 94.9741 5.59588C94.9949 4.80832 95.6581 4.16583 96.4456 4.20728C97.2125 4.20728 97.8135 4.82904 97.8342 5.59588Z" fill="url(#paint1_linear_15_165)"/>
</g>
<defs>
<filter id="filter0_d_15_165" x="35" y="0" width="32" height="32" filterUnits="userSpaceOnUse" color-interpolation-filters="sRGB">
<feFlood flood-opacity="0" result="BackgroundImageFix"/>
<feColorMatrix in="SourceAlpha" type="matrix" values="0 0 0 0 0 0 0 0 0 0 0 0 0 0 0 0 0 0 127 0" result="hardAlpha"/>
<feOffset dy="4"/>
<feGaussianBlur stdDeviation="2"/>
<feComposite in2="hardAlpha" operator="out"/>
<feColorMatrix type="matrix" values="0 0 0 0 0 0 0 0 0 0 0 0 0 0 0 0 0 0 0.25 0"/>
<feBlend mode="normal" in2="BackgroundImageFix" result="effect1_dropShadow_15_165"/>
<feBlend mode="normal" in="SourceGraphic" in2="effect1_dropShadow_15_165" result="shape"/>
</filter>
<linearGradient id="paint0_linear_15_165" x1="82.8487" y1="24.1312" x2="96.9949" y2="0.135787" gradientUnits="userSpaceOnUse">
<stop stop-color="#FDD074"/>
<stop offset="0.25" stop-color="#F77F34"/>
<stop offset="0.5" stop-color="#DD326E"/>
<stop offset="0.75" stop-color="#D82B7E"/>
<stop offset="1" stop-color="#A432B1"/>
</linearGradient>
<linearGradient id="paint1_linear_15_165" x1="86.4016" y1="18.0842" x2="94.6229" y2="4.09884" gradientUnits="userSpaceOnUse">
<stop stop-color="#FDD074"/>
<stop offset="0.25" stop-color="#F77F34"/>
<stop offset="0.5" stop-color="#DD326E"/>
<stop offset="0.75" stop-color="#D82B7E"/>
<stop offset="1" stop-color="#A432B1"/>
</linearGradient>
<clipPath id="clip0_15_165">
<rect width="24" height="24" fill="white" transform="translate(39)"/>
</clipPath>
<clipPath id="clip1_15_165">
<rect width="24" height="24" fill="white" transform="translate(78)"/>
</clipPath>
</defs>
</svg>
